<?xml version="1.0" ?><!DOCTYPE svg  PUBLIC '-//W3C//DTD SVG 1.1//EN'  'http://www.w3.org/Graphics/SVG/1.1/DTD/svg11.dtd'><svg enable-background="new 0 0 2000 2000" id="Layer_1" version="1.1" viewBox="0 0 2000 2000" xml:space="preserve" xmlns="http://www.w3.org/2000/svg" xmlns:xlink="http://www.w3.org/1999/xlink"><g><path d="M767.5,1212.3c5.8-4.1,9.7-8.7,11.6-13.7c8.3-22.6,38.3-65,53.4-75.6c1.5-1.1,2.8-1.7,3.9-2.1l0.7-0.2l-0.5-0.5   c-0.2-0.2-22.2-19.7-54.6-36.7c-29.9-15.7-75.1-32.4-120.3-22.9c-13.6,2.9-24.1,7-32.3,12.7c-15.5,10.8-20.6,26-26.6,43.5   c-8.1,23.9-18.2,53.7-59.9,82.8l0,0c-5.2,3.6-10.8,7.2-16.7,10.6c5.2-18.9,68.2-249,56.9-269.8l-0.1-0.1l-26.2-8.8l-0.4-0.1   l-0.1,0.4c-0.8,3.5-75,347.7-107.5,426.9c-32.5,79.2-114.5,240.1-115.3,241.7l-0.2,0.4l32.9,14.8l0.1-0.4   c1.5-3.7,148.2-366.6,154.4-376.5c2.7-4.4,25-25.7,55.7-47.1c31.7-22.1,77.3-47.9,117.1-47.3c-10.6,2.6-48.9,12.6-68.3,26.1   c-8.3,5.8-12.3,11.7-11.9,17.4c0.5,6.7,7.2,13.3,19.9,19.4C687.2,1233.7,742.7,1229.6,767.5,1212.3z M767.7,1211   c-0.3,0.2-0.4,0.4-0.7,0.6c-0.2,0.2-0.5,0.3-0.8,0.4C766.8,1211.7,767.2,1211.4,767.7,1211z"/><path d="M785.8,925.5c40.4-5.1,70.3-21.1,88.3-33.7c16.7-11.7,30.8-25.8,38.8-38.7c11-17.9,15.2-38,12.9-56.6   c0-0.4-0.1-0.7-0.2-1.1c-0.4-2.9-0.5-5.9-1.3-8.7c-3.2-12.1-9.4-21.4-16.8-25.5c-3.4-1.9-6.9-1.5-10.8,1.3   c-8.3,5.8-17.8,22.1-29.8,42.6c-10.7,18.4-24.1,41.4-40.9,64c-4.8,6.5-10.8,12.3-17.9,17.2c-51.4,35.9-145.9,18-146.9,17.8   l-3.3-0.7l3.1,1.4C703.4,923.6,745.4,930.6,785.8,925.5z"/><path d="M804.1,870.8c8.5-5.9,12-11,12.5-12.3c0.1-0.3,1.9-2.6,4-5.5c15.1-20.3,61.2-82.1,51.7-102.7c-1.9-4-5.7-6.2-11.5-6.6   l-0.2,0l-0.1,0.1c-0.1,0.1-11.9,11.4-32.7,25.8C780.7,802.6,684,854.4,566,832.1l-0.5-0.1l0.1,0.6c0,0.2,3.5,16.4,20,32.3   c15.1,14.7,44.7,32.2,99.5,32C752.8,896.8,787.2,882.6,804.1,870.8z"/><path d="M437.4,896c24.6-3.9,52.5-8.4,86.9,11.7c51.7,30.2,77.6,26,90.2,17.2c6.4-4.5,8.5-9.7,8.6-9.8c0.4-0.6,0.4-1.4,0.1-2.2   c-2-5.3-18.5-13.4-32.5-17.5c-16.9-4.9-41.2-33.5-41.5-33.8l-0.1-0.1l-0.1,0c-98.2-22.8-134.5-65.5-166.5-103.2   c-22.3-26.3-41.6-49.1-77.9-60.3c-20.3-6.2-36.3-6.3-48.3-1c-0.3,0.1-0.5,0.3-0.8,0.4c-1.8,0.9-3.9,1.5-5.5,2.6   c-4.6,3.2-7.9,7.8-10.7,13c-0.2,0.4-0.5,0.8-0.7,1.2c-4,8.4-5.9,18.5-4.8,30c1.2,12.2,5.5,22.9,10.2,24.9   c13.6,5.9,86.2,73.5,88.2,75.3C371.7,906.6,402.1,901.7,437.4,896z"/><path d="M389.9,610.6c-4.5-1.4-7.9,1.9-10.2,9.6C368.1,659.6,387,694.4,430,759c0.1,0.2,8.6,18.2,27.4,36.9   c17.4,17.2,47.3,38.5,91.3,42.1l0.2,0l0.1-0.1c0.1-0.1,0.6-0.5,0.5-1.7c-0.1-2.7-3.4-9.5-24-24.5c-15.1-11-37.7-33.7-54.9-55.3   c-21.1-26.4-31.8-47.4-30.2-59.1c2.6-0.2,22.1-1,26.7,19.7c2.5,11.3,12.2,36.3,32.7,58.9c25.5,28.1,58.6,43.4,98.4,45.6   c33.6,1.9,72.4-11.3,109.3-37c25.6-17.9,48-40.4,63.2-63.4c15.7-23.9,22.4-46.7,18.9-64.2c-2.1-10.3-9.2-19-21-25.9   c-52.1-30.6-177.3-18.5-186.7-15.5c-2,0.7-4.2,1.2-6.9,1.9c-14.3,3.6-43.9,11.1-146.2,58.4C426.4,670.1,404.8,615.1,389.9,610.6z"/><path d="M827.2,642.4c-46.8,83.4-77.8,134.1-94.9,154.9l-0.7,0.9l1.1-0.3c0.4-0.1,42.3-10.2,75.6-33.4c0,0,0,0,0,0   c19.3-13.5,32.1-28.7,37.9-45.3c8.3-23.5,24.5-43.1,38.8-60.4c20.1-24.3,37.5-45.3,25.9-68.2c-16.5-32.8-54-76.7-75.9-82.3   c-4.3-1.1-7.9-0.7-10.6,1.2c-6.2,4.3-2.3,11.2,3.6,21.5C839.6,551.4,859,585.7,827.2,642.4z"/><path d="M874.3,521.9c38.7,25.9,53,61.9,53.4,86.9c0.3,16.4-5.2,29.9-15,36.9c-24.1,17.3-52.7,63.3-50.8,76.9   c0.3,1.8,1.1,3,2.4,3.5l0.2,0.1l0.2-0.1c0.3-0.2,29-21.3,55.2-48.3c24.2-25,51-60.2,41.5-86.6c-6-16.7-8.9-29.5-11.2-39.9   c-4.8-21.2-7-30.9-28-38.5c-18.2-6.5-60.6-19-68.3-13.6c-0.8,0.6-1.3,1.4-1.2,2.3C852.6,505.6,859.7,512.2,874.3,521.9z"/><path d="M410.9,753.1l0.9,0.1l-0.5-0.7c-0.2-0.3-18.6-26.5-33.5-59.3C364,663,350.4,621,363.7,592.1c0.1-0.1,0.2-0.2,0.4-0.3   c3.2-2.2,20.6-12.3,50.2,8.4l0.7,0.5l-0.1-0.8c-0.1-1.2-8.7-122.8,10.3-146l0.5-0.6l-117.8,2l-0.5,0l0.2,0.5   c0.2,0.5,17.2,54.4-0.5,122.7c-9.2,35.4,1.4,81.3,27.6,119.8C356.4,729.8,384.1,749.8,410.9,753.1z"/><path d="M432.1,585.7c3,22.4,8.1,60,17.8,64.2c1.6,0.7,3.4,0.5,5.1-0.7c0.4-0.3,0.7-0.6,1.1-0.9l0.1-0.1l0-0.1   c0.2-0.8,21.3-83,28.3-87.9c0.2-0.1,0.4-0.2,0.5-0.3c2.8-2,1.5-13.6-1-32.4c-2.6-19.7-5.8-44.2-0.8-52.4c0.9-1.5,2.1-2.8,3.9-4   c5.8-4,15.6-6.3,26.9-8.9c14.4-3.3,30.8-7,43.1-15.6c2.5-1.8,4.8-3.7,6.8-5.7c11.7-11.9,16.8-21.8,16.1-31   c-0.7-8.5-6.4-16.5-17.9-25.1c-0.1-0.1-0.4-0.4-0.9-0.5c-1.8-0.4-6.1,0.6-16.2,7.7c-5.9,4.1-13,9.7-21.2,16.8   c-8.3,7.1-17.7,14.4-27.9,21.5c-22.7,15.8-42.9,26.7-49.5,30.2c-0.9,0.5-1.5,0.8-1.9,1c-3.5,2.5-16.2,96.1-13,119.8L432.1,585.7z"/><path d="M503.1,560.1l-0.2-1.1l-0.5,1c-1.4,3-34.7,74.3-22.9,81.4l0.2,0.1l0.2-0.1c0.6-0.4,58.2-38.9,69.9-37.1l1.5,0.2l-1.2-0.9   C549.7,603.4,505.5,570.3,503.1,560.1z"/><path d="M559.4,591.3l-0.7-0.9c-0.1-0.2-13-17.3-21.6-41.2c-7.9-22-13.9-54.4,3.1-83.8l0.4-0.7l-0.8,0.2c-0.2,0-18.7,3.8-30.9,12.3   c-8.1,5.6-11.7,12.1-10.7,19c0,0.2-1.8,19.7,4.7,41c6,19.7,20.5,45,55.4,53.9L559.4,591.3z"/><path d="M573.7,575.3c7.1,2.2,30.4-12.5,48.6-25.2c9.3-6.5,16.2-11.7,16.3-11.8l0.7-0.5l-0.8-0.2c-57.8-11.3-77.7-66-77.9-66.6   l-0.3-0.7l-0.4,0.6c-19.1,26.5-13.7,55.2-8.8,70C557,558.9,567.8,573.4,573.7,575.3z"/><path d="M604.6,462.1l53,8.3l0.5,0.1l-0.1-0.5c0-0.2-2-14.7-13.3-19.7c-9.5-4.2-22.5-0.6-38.8,10.8L604.6,462.1z"/><path d="M585.4,471.9l0,0.5c0,0.4,0.6,43.8,32.1,48.7c10,1.6,20.2-1.2,30.2-8.2c14.9-10.4,24.3-26.8,24.4-26.9l0.3-0.5L585.8,472   L585.4,471.9z"/><path d="M662.3,518.1l-1.4,1.2l1.8-0.5c9.2-2.8,17-6.4,23.1-10.6c10-7,15.6-15.8,16.7-26.2c1.4-14-5.8-30.5-19.8-45.3   c-19-20.1-42-7.6-50.9-1.3c-2.7,1.9-4.2,3.3-4.3,3.3l-1.7,1.5l2.1-0.9c0.3-0.1,28.7-11.5,51.9,16.5   C702.8,483.7,662.7,517.7,662.3,518.1z"/><path d="M649.3,420c32.3,2.4,60.8,17.6,82.5,43.9c25.9,31.4,35.2,71.8,38.3,100.1c3.5,30.7,0.7,54.4,0.7,54.6l0,0.1l0,0.1   c4.2,9.1,9.2,14.6,14.9,16.1c4.2,1.1,8.6,0.1,13-3c11.7-8.2,22.2-30.3,24.6-51.5c2-18.1-6.9-55.8-27.8-92.8   c-24.2-43.1-57.3-71.9-93.2-81.2c-52.1-13.5-86-0.4-105.2,13c-9.6,6.7-14.3,12.7-14.3,12.8l-1.1,1.4l1.6-0.8   C597.5,425.4,622.2,418,649.3,420z"/><path d="M742.6,609.8l0.4,0.1l0.1-0.4c8.4-38.7-36.1-112.2-36.6-113l-0.7-1.1l0,1.3c-0.3,12.6-16.3,30.1-47.5,51.8   c-33.4,23.3-72.9,43.3-73.3,43.5l-2.1,1l2.3-0.3C638.9,585.4,741.5,609.5,742.6,609.8z"/><path d="M1276.5,1098c0.3-0.7,1.2-2.9-20.6-23.8c-15.4-14.8-26.4-29.1-34.5-39.5c-6.8-8.8-10.8-14.1-13.4-14.1   c-0.8,0-1.4,0.5-1.8,1.4c-0.5,1.1-1,3.4-1.8,6.8c-4.1,18.7-16.7,75.5-85,139.5c-78.5,73.6-164.6,143.2-177.3,143.2   c-0.9,0-1.2-0.4-1.3-0.8c1.9-3.2,40-67,31.9-95.5c2.8-1,22.7-8.6,43.5-23.2c20.7-14.5,46.6-39,52.4-73.9   c8.9-53.4-30.1-114.7-115.9-182.4l-0.2-0.2l-0.2,0.1c-0.3,0.2-30.8,18.5-54.5,47.9c-13.9,17.3-22.8,35-26.3,52.6   c-1.6,7.7-1.7,15.5-1.2,23.2c0,0.1,0,0.1,0,0.2c0.4,5.4,1.2,10.8,2.6,16.1c0,0,0,0.1,0,0.1c2.2,8.6,5.4,17.2,10.3,25.7l75.3,79.4   l0.4,0.4l0.2-0.6c0.1-0.2,8.3-21.4,12.6-48.1c3.8-24.1,5.1-57.7-9.9-82.4c4.3,3.7,15.6,15.5,20.9,39.8c6.1,28,5.3,78.8-33.1,161.9   c-0.4,0.8-39.2,85.5-58.7,98.4c-37.4,24.9-166.5,106.4-259.2,110l-0.6,0l0.2,0.5c0.2,0.4,4.9,10.2,29,10.2   c40.6,0,130.6-27.6,328.8-158.7c2-1.5,196.6-150.5,216.5-186c1.2-1.2,30-29,61.5-29c1.9,0,3.8,0.1,5.7,0.3c0.3,0.2,1.7,0.8,2.6,0.8   C1276.2,1098.6,1276.5,1098.2,1276.5,1098z"/><path d="M1345.3,1150.9c-0.8-1.2-20.1-29.2-30.8-29.4c-3.3,0-10.7,6.4-16.1,15.6c-5.5,9.4-13,28.4-0.7,50.7   c19.3,34.9-20.5,133.6-21,134.6l-0.9,2.2l1.5-1.8c0.2-0.3,21.3-24.8,40.1-58.1c17.4-30.7,36.3-75.4,27.8-113.6L1345.3,1150.9z"/><path d="M1456.1,1192.2c-0.1-0.6-2.3-15.4-38.9-15.4c-2.6,0-5.3,0.1-8.1,0.2c-3.2,0.2-6.3,0.3-9.1,0.3c-34.5,0-35.7-12.3-35.7-12.4   l-0.8,0c0,0.2-2.5,23,11.8,36.6c2.4,2.3,5.4,5.4,9,9c15.6,15.8,39.1,39.6,49.9,39.6c1.4,0,2.6-0.4,3.6-1.3l74,71.5l0.6-0.5   C1511.8,1319.1,1453.7,1248.7,1456.1,1192.2z"/><path d="M1548.7,1115.1c-0.7-0.4-71.1-42.2-134.9-42.2c-33.8,0-59.9,11.6-77.6,34.5l-0.2,0.3l0.2,0.2c0.1,0.1,11.2,12.5,31.7,24.6   c18.9,11.2,49.8,24.6,90.1,24.6h0c12.4,0,25.1-1.3,37.8-3.7c42.2-8.2,63.9-17.1,64.7-26.5C1561,1119.7,1549.2,1115.2,1548.7,1115.1   z"/><path d="M992.2,836.8c12.3,0,29.3,3.8,40.6,21.7l0.6,1c10.6,16.9,30.5,48.5,56.3,76c31.8,33.8,62.8,50.9,92.2,50.9c0,0,0,0,0,0   c1,0,1.9,0,2.9-0.1l0.6,0l-0.3-0.5c-0.4-0.8-39.1-78.5-27.8-107.5c1.1-2.8,0.6-5.9-1.6-9.1c-13.5-19.9-90.9-43.3-142.7-43.3   c-14.1,0-24.5,2-31.7,5.5c0,0-0.1,0-0.1,0c-2.5,1.2-4.6,2.7-6.2,4.3c-0.4,0.4-0.7,0.8-1,1.2c-0.6,0.8-1.6,1.4-2,2.3l-0.4,0.8   l0.9-0.3C972.7,839.8,981.2,836.8,992.2,836.8z"/><path d="M1754.1,964.5c0.1-2.9,1.9-54.3-24.1-69.7l-0.3-0.2l-12.3,12.8l-0.1,0.1l0,0.1c-0.2,0.7-16.3,73.2-30.3,94.2   c-1.3,1.9-2.6,4.1-4.1,6.4c-13.9,22.1-37.2,59-87.5,59c-6.7,0-13.7-0.7-20.7-2c-0.7-0.3-69.1-31.1-134.3-31.1   c-44.4,0-77.2,14-97.5,41.6l-1.2,1.6l1.7-1c0.3-0.2,28.4-17.1,69-17.1c20.5,0,40.7,4.2,60.2,12.6c52.9,22.6,112,43.6,186,43.6   c20.8,0,42.5-1.7,64.5-4.9c0.6,0.3,3.8,1.7,7.5,1.7c0.7,0,1.3-0.4,2-0.6c0.6-0.1,1.2-0.3,1.8-0.5c1.5-0.5,2.8-1.3,4-2.4   c0.3-0.3,0.5-0.6,0.7-0.9c0.7-0.9,1.6-1.5,2.2-2.7c0.3-0.6,0.6-1.3,1-2.1C1777.2,1027.7,1768,986.1,1754.1,964.5z"/><path d="M1177.2,713.3c2.1,0.5,4.4,1,6.8,1.6c0.4,0.3,1,0.6,1.8,1c35.4,16.8,54.9,92.8,65,153.6l0.1,0.1   c0.2,0.3,21.5,34.7,70.2,55.4c35.5,15.1,38.6,34.4,37.5,44.4c-2-8.6-15.8-28-83.7-62.3c-0.2-0.1-16.3-9.8-34.9-30.5   c-17.2-19.2-39.9-52-51-99.5l-0.1-0.3h-0.3c-0.2,0-0.5,0-1.6,2.8c-0.7,1.6-16,40.9-9,98.5c3.6,28.9,12.2,57.3,25.6,84.5   c16.4,33.1,40.1,64.6,70.4,93.5c0.1,0.1,11.7,11.2,31,11.2c16.1,0,32.8-7.5,49.5-22.4c2.6-2.3,4.6-4.9,6.9-7.4   c0.5-0.6,1.1-1.1,1.6-1.7c7-8,12.5-16.8,16.3-26.4c0.3-0.8,0.6-1.5,0.8-2.3c2-5.5,3.5-11.2,4.5-17.1c0.1-0.9,0.3-1.8,0.4-2.7   c0.3-2.6,1-5.2,1.2-7.9c1.5-31.4-11.4-64.2-35.5-90.1c-32.5-34.9-136.3-153.4-109.7-213.4c9.1-20.5,6.2-32.3,2.1-38.5   c-4.2-6.5-11.8-10.1-21.2-10.1c-18,0-37.9,12.6-50.7,32c-2.6,4-5,7.6-7.2,10.8c-12,18-17.5,26.2-15.3,31.7   C1150.6,707,1159.5,709.1,1177.2,713.3z"/><path d="M1357.6,733.6C1357.6,733.6,1357.5,733.6,1357.6,733.6c-35.8,4.3-62.2,35.9-62.5,36.3l-0.2,0.3l0.3,0.2   c0.2,0.2,24.8,22.1,50.5,57.3c23.8,32.4,53.5,83.1,60,140.5l0.1,0.8l0.6-0.5c0.2-0.2,17.4-16.5,47.3-16.5c13,0,26.7,3.1,40.5,9.2   c13.9,6.1,26.1,9.1,37.5,9.1c30.7,0,48.7-23,64.4-46.6l0.5-0.8l-0.9,0.2c0,0-2.4,0.5-6.7,0.5c-9.3,0-28.5-2.5-52.9-18.8   c-29.6-20-57.8-54.1-83.7-101.5c-25.6-46.7-54.9-70.4-87.1-70.4C1362.5,732.8,1360.1,733.3,1357.6,733.6z"/><path d="M1669.4,804.3c-0.4,37.1-8.1,89.3-42.8,127.3c-45,49.3-79.5,56.7-96.1,56.7c-9.2,0-14.3-2.2-14.4-2.2l-0.1,0   c-0.1,0-6.8-0.2-16.5-0.2c-29,0-78.3,1.6-83.2,12.1l-0.2,0.4l0.4,0.2c0.8,0.3,80.3,35.2,144.6,35.2c10.3,0,19.9-0.9,28.4-2.7   c14.4-3,26.2-4.5,35.7-5.6c35.3-4.3,43.6-5.3,65.3-71l18.6-71.5c1.4-1.9,32.2-44.8,20.3-87.7c-7.5-26.9-30-48.3-66.8-63.4l-0.7-0.3   l0.2,0.7C1662,732.4,1669.9,764.1,1669.4,804.3z"/><path d="M1277.3,736.8l0.9,0.8l-0.2-1.1c-4.3-20.2,44.6-78.8,45.1-79.4c0,0,33.1-31.7,55.5-53.2c8.5-8.2,34.7-12.5,75.6-12.5   c37,0,73.8,3.5,74.1,3.6l0.9,0.1l-0.6-0.7c-43.4-51.4-94.3-62.2-129.3-62.2c-32,0-54.9,8.9-55.1,9l-60.3,62.8l-0.1,0.1   c-22.9,51.5-23.4,84.8-19.9,103.7C1267.7,728.3,1277.2,736.7,1277.3,736.8z"/><path d="M1377,638.6c-27,16.2-43.7,32.7-43.9,32.9l-0.1,0.1l-7.3,58.1l-0.1,0.8l0.7-0.5c0.8-0.5,81.1-52.6,156.7-52.6   c42.4,0,75.5,16.2,98.4,48.1c40.9,57.2,38.7,99.7,29.7,125.3c-9.8,27.7-29.5,42-29.8,42.2l-0.5,0.3l0.5,0.3   c3.9,2.3,8.1,3.5,12.4,3.5c16.8,0,35.9-16.7,53.8-46.9c21.4-36.2-8-161.8-8.3-163.1l0-0.1l-41.6-39.9   c-34.7-27.4-72.3-41.4-112-41.4C1441.1,605.7,1402,623.6,1377,638.6z"/><path d="M1590.5,774.9c-2.9-17.9-17.6-46.1-70.9-79.2l-0.1-0.1l-0.2,0c-1,0.3-4.9,1-10.9,2c-49.6,9-106.6,20.4-106.5,28.1l0,0.2   l0.1,0.1c0.8,0.6,81.3,62.9,89.4,75.1l0.5,0.7l0.2-0.8c0.2-0.6,16.5-57.3,47-57.3c5.1,0,10.5,1.6,15.8,4.8   c40.8,24.3,28.6,56.6,28.4,56.9l-0.9,2.2l1.5-1.8C1584.2,805.8,1593.6,794.1,1590.5,774.9z"/><path d="M1539.5,841.1l0.4,0.3l0.2-0.4c0.1-0.2,11.3-21.3,3.9-35.3c-3.6-6.8-11.1-10.8-22.1-12c-8.2-0.8-13.1,0.6-14.5,4.1   c-0.2,0.5,0.1,1.2,0,1.8c0,0,0,0.1,0,0.1C1506.7,812.4,1538.1,839.9,1539.5,841.1z"/><path d="M1554.9,879.1c4.1,0.9,7.8,1.3,11.1,1.3c4.7,0,8.2-1.2,11.1-2.9c0.5-0.3,0.9-0.6,1.3-0.9c0.8-0.6,1.9-1,2.5-1.7   c0.8-1,1.1-2.4,1.7-3.6c0,0,0,0,0-0.1c8.2-18.3-7.2-54.2-8-55.9l-0.7-1.5l-0.1,1.7c-0.6,20.2-6.1,32.6-16.1,37   c-2.8,1.2-5.9,1.8-9.1,1.8c-21.7,0-49.8-24.3-50.1-24.6l-0.3,0.3l0,0l-1.7-1.7c0-0.2-0.2-0.4-0.2-0.6l-0.4,0.1l0,0c0,0,0,0,0,0   l-0.4,0.1C1501.1,853.9,1530.3,873.7,1554.9,879.1z"/></g></svg>